<svg width="34" height="40" viewBox="0 0 34 40" fill="none" xmlns="http://www.w3.org/2000/svg"><path d="M-.1284 39.1984h33.4809c.1658-3.8181-.1077-10.153-2.4552-13.1682l-.0849-.1083-5.1298-2.5756c.1114-.3757.1662-.7199.1882-.9728.0254-.3037-.0165-.5889-.1249-.8473-.8463-2.0251-2.6371-3.0906-3.6221-3.5447.3002-.6048.4937-1.2541.5872-1.9175a1.6457 1.6457 0 001.1531-1.1885l.5988-2.4325a1.646 1.646 0 00-.1886-1.2527c-.0981-.1631-.225-.3005-.3674-.418 1.6882-3.8346-1.1393-7.4504-1.2933-7.6407C19.5514-.1792 15.683.44 15.4785.4766c-5.5827 1.169-7.737 5.4474-6.5208 10.4653a1.6473 1.6473 0 00-.378 1.5005l.6017 2.4352c.1459.5852.5908 1.0255 1.1445 1.1845a6.2652 6.2652 0 001.4403 3.1992v1.9284c-8.0111 4.1026-2.935 1.4852-9.3551 4.7331-.0127.0606-3.0125 3.2487-2.5666 12.6983l.0271.5773zm32.3175-1.2121h-5.5103v-2.3147l3.6445-8.3431c1.8257 3.0303 1.8935 8.8163 1.8658 10.6578zm-7.5205-15.7158c-.2126 2.4427-1.5522 1.7043-2.3792 3.5863-.6504-.7152-.846-1.5728-.6712-2.4908.3158-1.6856-.713-2.1863-.4587-3.9574l.0385-.0406v-.0056c.0218-.0244.2247-.2661.2835-.3424 2.1801.9504 3.2296 2.7179 3.1871 3.2505zm-11.6954-1.92c1.0121.702 2.2338 1.1168 3.5478 1.1168 1.2375 0 2.4129-.3601 3.4206-1.0232.1397 1.3924.6839 1.6712.4908 2.6958-.0362.1902-.0558.3776-.0674.562l-3.7527 4.2294-4.7971-5.4083 1.158-.6047v-1.5678zm-1.5087-5.1761v-2.3449-4.1202c.584-1.0802 1.3802-1.8635 2.3697-2.3331 2.6501 1.4994 5.7005 3.7372 7.7463 5.9893-.002 2.8681.0081 2.8759-.011 3.1115l-.0013.015c-.1596 2.6044-2.3011 4.7632-5.0472 4.7632-2.6697 0-4.8862-2.0961-5.0465-4.789a3.3976 3.3976 0 01-.01-.2918zm-.7473 7.9335l5.8951 6.6457 3.9579-4.4606c.0904.2604.2173.5065.3624.7441l-4.3202 5.4027-6.4424-8.0572.5472-.2747zm12.0702-8.9089v-1.8723l.45-.5159c.0248.948.1272-.1709-.45 2.3882zM15.7018 1.6677c.2395.0149 3.4564-.4894 5.9989 2.2555.1001.1256 2.1697 2.7922 1.3383 5.7093-.2846-1.298-.7807-2.9614-1.5646-3.7553l-.8569.8535c.774.784 1.2825 3.1714 1.4761 4.4091-3.5505-3.7153-8.1306-6.0667-8.1934-6.1065-.2297.1428-2.1679.5113-3.5755 3.2472l-.0672.1308v2.0093l-.1774.0019c-.8944-4.318.8184-7.748 5.6217-8.7548zM9.9529 11.6694l.3046 1.2341v1.297l-.5062-2.049c-.0743-.3054.152-.4212.2016-.4821zm-.8874 12.2677l7.5468 9.4387 5.1061-6.3863c.5555.4971.8225.5676 2.0002 1.1732l-.3972-1.3474c-.1008-.3421.2982-.8907.5392-1.1428.538-.2919.9864-.7081 1.3219-1.2219l4.166 2.0919-3.8766 8.8752v2.5686H7.7522v-2.5689l-3.8784-8.874 5.1917-2.6063zm-6.1653 3.394l3.645 8.3408v2.3144H1.035c-.0277-1.8409.0406-7.624 1.8652-10.6552z" fill="#FF6B09"/></svg>