<svg width="35" height="41" viewBox="0 0 35 41" fill="none" xmlns="http://www.w3.org/2000/svg"><path d="M.6772 17.6776c0 .4461-.6772.4461-.6772 0C0 8.1926 7.6926.5 17.1776.5c9.4891 0 17.1776 7.6926 17.1776 17.1776 0 .4461-.6731.4461-.6731 0 0-6.4112-10.5353-6.4152-10.5353 0 0 .4461-.6934.4461-.6934 0 0-6.395-10.5515-6.395-10.5515 0 0 .4461-.6935.4461-.6935 0 0-6.3828-10.5312-6.4274-10.5312 0zm10.5921-2.4898c.1824-3.6902.7623-6.9992 1.6058-9.5256.6732-2.0073 1.5247-3.532 2.4899-4.3877C8.1225 2.0653 2.2587 7.556.949 14.6768c2.4938-3.5969 8.2521-3.309 10.3203.511zm11.1313-.1663c-.1865-3.5483-.7502-6.7234-1.5612-9.1444-2.0924-6.2652-5.2311-6.2652-7.3236 0-.811 2.421-1.3706 5.5961-1.5612 9.1444 2.2506-3.824 8.1954-3.824 10.446 0zm11.0057-.3447C32.1006 7.556 26.2368 2.0653 18.9903 1.2745c.9691.8557 1.8167 2.3804 2.4898 4.3877.8435 2.5264 1.4234 5.8354 1.6059 9.5256 2.0803-3.8403 7.8548-4.0674 10.3203-.511zM14.9229 25.5374v-3.4881c-.6286.4177-1.1233 1.0626-1.1233 1.8495 0 .7666.5029 1.2736 1.1233 1.6386zm.6772 1.083c-1.2044-.5516-2.4736-1.1965-2.4736-2.7216 0-1.5737 1.1962-2.3606 2.4736-2.9487v5.6703zM19.4324 30.8v3.528c.6367-.4217 1.1355-1.0705 1.1355-1.8572 0-.7746-.511-1.2977-1.1355-1.6708zm-.6731-1.0867c1.2084.5596 2.4858 1.2246 2.4858 2.7575 0 1.5774-1.2044 2.3641-2.4858 2.9481v-5.7056z" fill="#FF6B09"/><path d="M19.4323 18.0791c2.7737.6407 5.6245 2.717 5.6245 5.8193 0 2.6562-4.4891 2.5588-4.4891 0 0-.7908-.4987-1.4396-1.1354-1.8573v4.9636c2.5669.8394 5.6326 2.3439 5.6326 5.4665 0 3.1063-2.8508 5.1785-5.6326 5.8152-.0122 2.9563-4.5012 2.9522-4.5093-.004-1.5815-.365-2.9562-1.1031-3.9497-2.0804-1.0422-1.03-1.6586-2.3236-1.6586-3.7308 0-2.6157 4.485-2.6157 4.485 0 0 .7826.4947 1.4274 1.1233 1.8451v-4.9595c-2.5467-.8233-5.6286-2.3724-5.6286-5.4665 0-3.1063 2.8508-5.1786 5.6286-5.8153.0121-2.9562 4.5012-2.9522 4.5093.0041zm-3.8321.0081v.5394c-2.6399.5231-5.6326 2.2141-5.6326 5.2637 0 2.9319 3.2847 4.2458 5.6326 4.9717v6.5533c-1.2693-.5799-2.4737-1.3626-2.4737-2.9441 0-1.7276-3.1386-1.7276-3.1386 0 0 1.2206.5434 2.348 1.4598 3.2482 1.1638 1.1517 2.575 1.6992 4.1525 2.0114v.5434c0 2.0804 3.159 2.0804 3.159 0v-.5393c2.648-.5272 5.6285-2.2182 5.6285-5.2637 0-2.9603-3.2766-4.2337-5.6285-4.9758v-6.5492c1.2733.5799 2.4858 1.3625 2.4858 2.9522 0 1.6829 3.1346 1.7519 3.1346 0 0-3.0455-2.9765-4.7406-5.6204-5.2678v-.5434c0-2.0803-3.159-2.0803-3.159 0z" fill="#FF6B09"/></svg>