<svg width="42" height="42" viewBox="0 0 42 42" fill="none" xmlns="http://www.w3.org/2000/svg"><path d="M38.6619.336H18.4873c-1.3133 0-2.3817 1.0684-2.3817 2.3817v8.3512l-14.988 6.2908a.4872.4872 0 00-.298.415.4884.4884 0 00.2358.4537l1.9114 1.144v12.1909c-.9775.2228-1.711 1.0977-1.711 2.1444v1.1751c0 .2694.2187.4881.4882.4881h3.4227a.4883.4883 0 00.488-.4881v-1.1751c0-1.0453-.7335-1.919-1.7117-2.1432V19.9567l1.5113.9045c-.0465.3485-.006-.6074-.0216 5.6757 0 2.0653 5.2902 3.1717 10.6729 3.2351v9.5138c0 .4914.1505.9485.4078 1.3278.428.6332 1.1525 1.0504 1.9726 1.0504h20.1746c1.3121 0 2.3795-1.0677 2.3795-2.3795 0 .0652-.0027-2.0152 0-36.5664 0-1.2956-1.0712-2.382-2.3782-2.382zM4.6786 33.7078v.687H2.2321v-.687c0-.6763.5475-1.2266 1.2202-1.2266.6762 0 1.2263.5503 1.2263 1.2266zm33.9833 6.9776H18.4873a1.4069 1.4069 0 01-1.1646-.617 1.3953 1.3953 0 01-.2399-.7838v-3.2978h22.9786v3.2991c0 .7645-.6371 1.3995-1.3995 1.3995zm1.3995-5.6748H17.0818v-5.2356c2.6281-.0301 10.6793-.6088 10.6793-3.238-.0029-3.947.007-5.5476-.0124-5.683l4.383-2.6255a.4883.4883 0 00-.0622-.8687l-14.9877-6.2909V6.9921h22.9796v28.0184zM16.5937 23.2962c-2.7074 0-7.9202.3497-10.1848 1.8285.0143-4.5231-.157-4.2286.4-4.6121 1.4068-1.036 5.4304-1.7592 9.7848-1.7592 1.8992 0 10.1912.5221 10.1912 2.2778v4.0941c-2.2858-1.4925-7.4722-1.8291-10.1912-1.8291zm.4891-20.5781c0-.7738.6295-1.4033 1.4032-1.4033h20.1746c.7745 0 1.4008.6383 1.4008 1.403v3.298H17.0828V2.7182zm-.4891 9.2045l14.2091 5.9639-3.5208 2.1069c-1.8718-1.8562-8.0636-2.2162-10.6883-2.2162-2.6281 0-8.8204.3611-10.6882 2.2168l-3.5218-2.1075 14.21-5.9639zM6.4089 26.5369c0-.79 3.498-2.2645 10.1848-2.2645 6.691 0 10.1912 1.4745 10.1912 2.2645 0 .7906-3.5002 2.265-10.1912 2.265-6.6868 0-10.1848-1.4744-10.1848-2.265z" fill="#FF6B09"/></svg>